<?xml version="1.0"?><svg width="160" height="120" xmlns="http://www.w3.org/2000/svg">
 <!-- Created with SVG-edit - http://svg-edit.googlecode.com/ -->
 <g transform="scale(0.25)">
  <g id="svg_2">
   <path id="svg_4" d="m310.5,238c1.666992,-21.667007 -112.667007,-138.333298 -175,-108c-62.333298,30.333008 29,78 3,184c-26,106 173,-60 174,-52c1,8 -4,-18 -3,-15c1,3 -0.666992,12.667023 1,-9z" stroke-linecap="null" stroke-linejoin="null" stroke-dasharray="null" stroke-width="5" stroke="#FFFFFF" fill="#ffffff"/>
   <ellipse transform="rotate(-27.492799758911133 233.46200561523435,301.2019958496094) " id="svg_5" ry="18.739544" rx="98.844907" cy="301.202124" cx="233.462311" stroke-linecap="null" stroke-linejoin="null" stroke-dasharray="null" stroke-width="5" stroke="#FFFFFF" fill="#ffffff"/>
   <path id="svg_9" d="m310.822998,237c-1.710999,-21.667007 115.653015,-138.333298 179.639008,-108c63.985992,30.333008 -29.769012,78 -3.080017,184c26.689972,106 -177.585999,-60 -178.612,-52c-1.026978,8 4.106018,-18 3.07901,-15c-1.026001,3 0.68399,12.667023 -1.026001,-9z" stroke-linecap="null" stroke-linejoin="null" stroke-dasharray="null" stroke-width="5" stroke="#FFFFFF" fill="#ffffff"/>
   <ellipse id="svg_10" transform="rotate(23.322399139404297 399.0910034179685,304.7409973144532) " ry="21.95858" rx="97.894924" cy="304.741062" cx="399.090858" stroke-linecap="null" stroke-linejoin="null" stroke-dasharray="null" stroke-width="5" stroke="#FFFFFF" fill="#ffffff"/>
   <circle id="svg_22" r="61.068878" cy="246.499997" cx="312.499998" stroke-linecap="null" stroke-linejoin="null" stroke-dasharray="null" stroke-width="5" stroke="#FFFFFF" fill="#ffffff"/>
  </g>
  <path d="m229,281.5c0,0 -1.044907,0.378571 -12,4.5c-9.038162,3.400238 -15,7.5 -21,12c-6,4.5 -8.540161,7.188202 -10.5,8c-0.923874,0.38269 -2.536392,1.940948 -5,3.5c-1.523361,0.96402 -3.123062,1.811768 -5.5,3.5c-3.183777,2.261322 -4.467072,3.572144 -5.5,4c-1.460785,0.605072 -4.281967,1.683868 -6,3.5c-1.238892,1.309631 -2.306915,2.148499 -3.5,3.5c-0.739914,0.838165 -1.759644,1.279083 -3,3c-0.653732,0.906982 -1.412216,1.04895 -2,2c-0.262863,0.425323 -0.57341,0.931641 -1.5,2c-1.638,1.888641 -1.808655,2.038055 -2,2.5c-0.270599,0.65329 -0.5,1 -1,1.5c-0.5,0.5 -0.146454,1.146454 -0.5,1.5c-0.353546,0.353546 -1.5,1 -1.5,1.5l0,0.5" id="svg_1" stroke-width="10" stroke="#FFFFFF" fill="none"/>
  <path d="m247,273c0,0 -0.563217,-0.194946 -7,2c-8.086761,2.757599 -13.445862,6.59787 -17,8.5c-5.914459,3.165314 -9.293533,4.865631 -13.5,7c-4.802338,2.436707 -8.565857,3.884979 -13,6.5c-4.063049,2.396179 -6.616486,3.294861 -8.5,4.5c-2.696793,1.725494 -7.404007,3.91156 -12,7.5c-1.114685,0.870331 -2.623566,1.805847 -3.5,2.5c-3.061279,2.424591 -5.605835,4.357056 -7,5.5c-0.546829,0.448303 -1.946747,2.098358 -6.5,4.5c-0.988907,0.521606 -1.686005,1.192535 -3.5,2.5c-0.573639,0.413452 -1.5,2 -3,4l-0.5,0.5l-0.5,0.5l0,0.5" id="svg_3" stroke-width="10" stroke="#ffffff" fill="none"/>
  <path d="m211,285.5c0,0 -1.523331,-0.042603 -12.5,6c-4.509659,2.482544 -5.595428,-0.209229 5,-8.5c6.694199,-5.238098 7.084351,-3.384064 -2.5,3.5c-4.957108,3.560486 -0.380356,0.516052 15.5,-1.5c0.992035,-0.125946 -11.431229,24.062897 -20,11.5c-2.994934,-4.39093 20.358383,-13.979523 20.5,-13.5c2.867401,9.709686 -12.936569,7.691406 -10,4c1.760834,-2.21347 -8.045013,11.482178 -12,0.5c-1.365845,-3.792694 16.98793,-5.154877 16,-5c-14.528015,2.277466 -13.02858,4.250244 16.5,3.5c10.996445,-0.279388 -2.696426,17.411011 -6.5,5c-0.463303,-1.511749 4.951447,-2.627136 3.5,-2c-6.776886,2.928101 -3.950256,0.522491 9.5,-1.5c0.494446,-0.074341 -0.958618,-0.714111 6.5,-5c9.507919,-5.46347 7.710144,-0.57843 6.5,-3.5c-0.855713,-2.065857 12.856354,-5.389252 12.5,-6c-4.707336,-8.067902 -10.5,2.5 -6.5,0.5c1,-0.5 -4.950714,4.756775 -6.5,2c-4.171555,-7.422821 8.172195,-5.556274 -3.5,-1c-1.920425,0.749634 1.368607,0.063507 -4.5,3.5c-17.568756,10.287811 -18.810638,8.87735 -26.5,12.5c-8.31572,3.917755 -8.819382,4.6922 -12,7.5c-4.273819,3.772858 -14.04483,6.549164 -13,10c0.144897,0.478546 1.981857,-1.133453 1.5,-1c-16.858124,4.669434 -16.076126,9.11731 -17,9.5c-1.306564,0.541199 -1.709427,1.709442 -2.5,2.5c-0.790573,0.790558 -2.852737,3.673096 -4,4.5c-0.906998,0.653717 -1.806915,0.648499 -3,2c-0.739914,0.838165 -3.477585,2.774567 -4,4.5c-0.28978,0.957092 -0.5,1.5 -1,2c-1,1 -1,1.5 -1.5,2c-0.5,0.5 -1.693436,2.458801 -3,3c-0.461945,0.191345 -0.538055,0.308655 -1,0.5c-0.653275,0.270599 -0.5,1 -1,1c-0.5,0 -0.146454,0.646454 -0.5,1c-0.353546,0.353546 -0.646454,0.146454 -1,0.5c-0.353546,0.353546 -1,0 -1.5,0l0,0.5" id="svg_6" stroke-width="10" stroke="#ffffff" fill="none"/>
  <path d="m152,330.5c0,0 -0.5,0 -2,0.5c-1.5,0.5 -2,1.5 -2,2c0,0.5 0.353546,1.146454 0,1.5c-0.353546,0.353546 -0.5,0.5 -0.5,1c0,0.5 0,1 0,1.5c0,0.5 0,1 0,1.5l0,0.5l0,0.5l0,0.5" id="svg_7" stroke-width="10" stroke="#ffffff" fill="none"/>
  <path d="m175,322.5c0,0 1.091034,-0.416595 2,-1.5c3.922791,-4.675659 5.270599,-6.34671 5,-7c-0.38269,-0.923889 -10.246353,5.935089 -10,5.5c2.87291,-5.074097 6.5,-3.5 6,-2.5l-3,1.5" id="svg_8" stroke-width="10" stroke="#ffffff" fill="none"/>
  <polyline id="svg_11" points="147,340.5 147,340.5 " stroke-linecap="round" stroke-width="10" stroke="#ffffff" fill="none"/>
  <path d="m267,283.5c0,0 -1.458466,0.499237 -10.5,1c-4.992355,0.276489 -3.616882,-3.701904 4,-5.5c0.486633,-0.114868 -7.580841,14.801758 -12,6c-4.118484,-8.202942 22.992859,-12.514038 22,-12c-14.104218,7.302124 -16.488846,9.529358 -14.5,4.5c1.118439,-2.828278 -7.347015,0.477905 -8,-3.5c-2.60817,-15.88858 21.5,-10 14,-10c-13,0 2.000977,4.046692 1.5,-4c-0.8078,-12.974884 -23.823044,-1.759247 1.5,-5.5c12.898438,-1.90538 -14.849457,14.77243 -17.5,0c-1.396179,-7.781433 7.004166,5.012482 4,-4c-0.790573,-2.371704 29.496796,-8.196411 23.5,-8c-30.549118,1.000534 -11.832031,6.241608 -14.5,-4.5c-0.733124,-2.951691 -7.3703,2.802444 13.5,-5.5c6.233093,-2.479599 -28.019379,6.925598 -29,0.5c-1.264465,-8.285599 11.5,-3 6,-3c0,0 22.494751,-6.177628 19.5,-6c-21.111176,1.252197 -19.770798,4.579559 -16.5,-0.5c0.270691,-0.42038 -1.442551,-0.369339 5.5,-3.5c9.582672,-4.321182 2.818268,3.156738 0.5,-4.5c-0.52243,-1.725418 6,-2.5 5.5,-2.5c-7.5,0 -3.726532,0.577682 -3,-2.5c0.162445,-0.688187 10.027557,3.431992 8.5,-4.5c-0.094543,-0.490982 -2.243134,0.08812 -2.5,-1c-0.114868,-0.486618 -0.353546,-1.146454 0,-1.5c0.353546,-0.353546 1.146454,-0.146454 1.5,-0.5c0.353546,-0.353546 0.808655,-0.538055 1,-1c0.270599,-0.653275 0.646454,-0.646454 1,-1c0.353546,-0.353546 0.808655,-0.038055 1,-0.5c0.270599,-0.653275 1,-0.5 1.5,-0.5l0,-0.5l0,0.5" id="svg_12" stroke-width="10" stroke="#ffffff" fill="none"/>
  <path d="m262.5,232.5c0,0 -6.624649,2.255371 -21.5,10.5c-4.730347,2.62178 -3.322754,2.911026 7.5,-2c6.108719,-2.771942 5.375717,-3.234467 0.5,-0.5c-4.114136,2.307358 -3.593048,1.752563 5.5,1c0.498291,-0.041245 -2,1 -5,2.5l0.5,0" id="svg_13" stroke-width="10" stroke="#ffffff" fill="none"/>
  <path d="m275.5,277.5c0,0 -1.061859,1.401428 -3.5,3c-3.596985,2.358337 -4.103394,3.406342 -5,4.5c-1.142944,1.394165 -1.846283,1.593018 -2.5,2.5c-0.826904,1.147278 -1,1.5 -0.5,1.5c2.5,0 5.026764,0.229767 6,0c1.088135,-0.256866 1.193451,-0.958801 2.5,-1.5c1.385834,-0.574036 1.986633,-0.114868 1.5,0c-2.176239,0.513733 -2.146454,1.146454 -2.5,1.5c-0.353546,0.353546 -0.308655,0.538055 -0.5,1c-0.270599,0.65329 0.5755,1.282684 1.5,0c0.292358,-0.405609 0.576111,-0.11731 1.5,-0.5c0.65329,-0.270599 1.5,-0.5 2,-0.5c0.5,0 1.146454,-0.353546 1.5,0c0.353546,0.353546 -0.5,1 -1,1.5l-0.5,0l-0.5,0l-0.5,0.5" id="svg_14" stroke-width="10" stroke="#ffffff" fill="none"/>
  <polyline id="svg_15" points="278.5,288.5 278.5,288.5 277,289 " stroke-linecap="round" stroke-width="10" stroke="#ffffff" fill="none"/>
  <path d="m277,289" id="svg_16" stroke-width="10" stroke="#ffffff" fill="none"/>
  <polyline id="svg_17" points="274,293 274,293 " stroke-linecap="round" stroke-width="10" stroke="#ffffff" fill="none"/>
  <polyline id="svg_18" points="274,199.5 274,199.5 " stroke-linecap="round" stroke-width="10" stroke="#ffffff" fill="none"/>
  <polyline id="svg_19" points="277,199 277,199 " stroke-linecap="round" stroke-width="10" stroke="#ffffff" fill="none"/>
  <path d="m347,196.5c0,0 0.5,0 2.5,1c1,0.5 3.093018,1.346268 4,2c1.147278,0.826904 2.805511,0.964035 4,2c0.844635,0.732544 1.267456,2.15538 2,3c1.03595,1.194473 1.385132,3.013382 1.5,3.5c0.256866,1.08812 0.846283,2.093002 1.5,3c0.413452,0.573639 1.168732,2.154999 2,3.5c0.7435,1.203003 1.595154,2.440765 2.5,4c1.122345,1.93399 1.394928,3.539215 2,5c0.855713,2.065857 1.557922,3.981918 2,5.5c0.576385,1.97934 0.179626,3.525818 0.5,5.5c0.253265,1.560715 0.5,3 0.5,5c0,2.5 0,4.5 0,6.5c0,1.5 0,3 0,5.5c0,2.5 0,3.5 0,5.5c0,1.5 0,2.5 0,4.5c0,1.5 -0.743134,2.911865 -1,4c-0.229767,0.973236 -1.072144,2.467072 -1.5,3.5c-0.605072,1.460785 -1.5,3 -2.5,4c-1,1 -1.661835,2.260071 -2.5,3c-1.351501,1.193085 -1.938843,2.53299 -2.5,3.5c-0.904846,1.559235 -1.217316,2.5755 -2.5,3.5c-0.405609,0.292358 -0.846283,1.093018 -1.5,2c-0.826904,1.147278 -1.346283,1.593018 -2,2.5c-0.413452,0.573639 -0.808655,1.038055 -1,1.5c-0.270599,0.65329 -1.074677,0.737122 -1.5,1c-0.95105,0.587799 -1.038055,1.308655 -1.5,1.5c-0.65329,0.270599 -1,0.5 -1,1l-0.5,0.5l-0.5,0" id="svg_20" stroke-width="10" stroke="#ffffff" fill="none"/>
  <polyline id="svg_21" points="347.5,294.5 347.5,294.5 " stroke-linecap="round" stroke-width="10" stroke="#ffffff" fill="none"/>
  <polyline id="svg_23" points="346,198.5 346,198.5 " stroke-linecap="round" stroke-width="10" stroke="#ffffff" fill="none"/>
  <path d="m373.5,272c0,0 1,0 2,0c3,0 4.967072,0.572144 6,1c1.460785,0.605072 4.472931,2.07428 8.5,3.5c2.980988,1.055359 6.306458,2.384308 9,3.5c3.809265,1.57785 5.827454,2.411469 9,3.5c2.411499,0.827423 5.607574,1.680389 9,3c3.125946,1.215942 6.044159,2.37619 9,3.5c3.559326,1.353241 7.481964,3.542786 11,5c2.48761,1.030396 5.154999,2.668732 6.5,3.5c1.804504,1.115234 3.425385,3.105042 5.5,4.5c2.419403,1.626801 4.105835,2.357056 5.5,3.5c1.640503,1.344879 3.539856,2.923981 5.5,4c2.555725,1.402954 3.857056,2.605835 5,4c1.344879,1.640503 2.852722,2.673096 4,3.5c0.906982,0.653717 1.593018,1.346283 2.5,2c0.573639,0.413452 2.5755,0.717316 3.5,2c0.292358,0.405609 1.0755,0.717316 2,2c0.584717,0.811249 0.5,1 0.5,1.5c0,0.5 0.808655,0.538055 1,1c0.270599,0.65329 0.729401,0.84671 1,1.5c0.191345,0.461945 0.5,0.5 0.5,1l0,0.5l0.5,0" id="svg_24" stroke-width="10" stroke="#ffffff" fill="none"/>
  <path d="m456,315.5c0,0 -3.947723,-2.598846 -10.5,-6c-3.969238,-2.060364 -6.115814,-2.851501 -10,-6c-4.128967,-3.346893 -6.389252,-4.409668 -6,-5c1.482239,-2.247864 8.505096,2.876282 10,3c3.031006,0.250854 3.493011,0.583282 3,0.5c-12.005646,-2.028351 -26.093018,-6.846283 -27,-7.5c-1.147278,-0.826904 -6.094452,-5.313171 -12.5,-8c-5.257141,-2.205109 -10.32254,-0.578003 -15.5,-2.5c-4.032288,-1.496887 -3.565338,-4.064362 -4,-5.5c-0.52243,-1.725433 -10.025116,-1.025116 -12.5,-3.5c-0.353546,-0.353546 6.513733,-0.823761 6,-3c-0.114868,-0.486633 -6.5,-0.5 -6.5,0c0,0.5 1,1.5 1,2l1.5,0.5l2,0" id="svg_25" stroke-width="10" stroke="#ffffff" fill="none"/>
  <polyline id="svg_26" points="479.5,331 479.5,331 " stroke-linecap="round" stroke-width="10" stroke="#ffffff" fill="none"/>
  <polyline id="svg_27" points="483,332.5 483,332.5 " stroke-linecap="round" stroke-width="10" stroke="#ffffff" fill="none"/>
  <polyline id="svg_28" points="483,336 483,336 " stroke-linecap="round" stroke-width="10" stroke="#ffffff" fill="none"/>
 </g>
</svg>